<svg width="528" height="464" viewBox="0 0 528 464" fill="none" xmlns="http://www.w3.org/2000/svg">
<path d="M233.3 451.4L68.5 289.6C61.4 283 0 224.1 0 150.8C0 60.1 56.8 0 152 0C193.4 0 232.6 22.8 264 49.8C295.3 22.8 334.6 0 376 0C467.7 0 528 56.5 528 150.8C528 202.8 496.2 254.3 459.9 289.5L459.5 289.9L294.7 451.4C286.522 459.473 275.492 464 264 464C252.508 464 241.478 459.473 233.3 451.4ZM101.9 255.1L264 414.3L425.8 255.6C453.1 228.6 480 189.3 480 150.8C480 83.9 441.8 48 376 48C328.8 48 283.2 97.3 264 116.4C247 99.4 200 48 152 48C86.1 48 48 83.9 48 150.8C48 188.1 74.7 229.7 101.9 255.1Z" fill="black"/>
</svg>
