<svg width="513" height="512" viewBox="0 0 513 512" fill="none" xmlns="http://www.w3.org/2000/svg">
<path d="M439.957 6.47525L23.9565 246.375C-10.4435 266.275 -7.14348 317.175 29.6565 332.275L143.957 379.575V463.975C143.957 510.375 203.157 529.475 230.557 492.575L274.357 433.475L386.257 479.675C392.156 482.075 398.357 483.275 404.557 483.275C412.757 483.275 420.857 481.175 428.157 477.075C440.957 469.875 449.757 457.075 452.057 442.575L511.457 55.3752C517.557 15.2752 474.557 -13.4248 439.957 6.47525ZM191.957 463.975V399.375L228.557 414.475L191.957 463.975ZM404.557 435.275L250.757 371.775L390.957 169.475C401.657 153.975 381.457 135.975 367.257 148.275L155.757 332.575L47.9565 287.975L463.957 47.9752L404.557 435.275Z" fill="black"/>
</svg>
